G75*
%MOIN*%
%OFA0B0*%
%FSLAX24Y24*%
%IPPOS*%
%LPD*%
%AMOC8*
5,1,8,0,0,1.08239X$1,22.5*
%
%ADD10C,0.0580*%
%ADD11C,0.0709*%
%ADD12OC8,0.0600*%
%ADD13C,0.0160*%
%ADD14C,0.0396*%
%ADD15C,0.0240*%
%ADD16C,0.0436*%
D10*
X007470Y008143D02*
X008050Y008143D01*
X008050Y009143D02*
X007470Y009143D01*
X007470Y010143D02*
X008050Y010143D01*
X008050Y011143D02*
X007470Y011143D01*
X007470Y012143D02*
X008050Y012143D01*
X008050Y013143D02*
X007470Y013143D01*
X007470Y014143D02*
X008050Y014143D01*
X016470Y014143D02*
X017050Y014143D01*
X017050Y013143D02*
X016470Y013143D01*
X016470Y012143D02*
X017050Y012143D01*
X017050Y011143D02*
X016470Y011143D01*
X016470Y010143D02*
X017050Y010143D01*
X017050Y009143D02*
X016470Y009143D01*
X016470Y008143D02*
X017050Y008143D01*
D11*
X020193Y012539D02*
X020193Y013248D01*
X021571Y013248D02*
X021571Y012539D01*
X022948Y012539D02*
X022948Y013248D01*
X024326Y013248D02*
X024326Y012539D01*
X025821Y008998D02*
X025821Y008289D01*
X027198Y008289D02*
X027198Y008998D01*
D12*
X014760Y010393D03*
X013760Y010393D03*
X012760Y010393D03*
X011760Y010393D03*
X010760Y010393D03*
X009760Y010393D03*
X009760Y011393D03*
X010760Y011393D03*
X011760Y011393D03*
X012760Y011393D03*
X013760Y011393D03*
X014760Y011393D03*
D13*
X005080Y017073D02*
X005080Y004713D01*
X028440Y004713D01*
X028440Y017073D01*
X005080Y017073D01*
X005080Y016915D02*
X028440Y016915D01*
X028440Y016756D02*
X017375Y016756D01*
X017525Y016694D02*
X017177Y016838D01*
X016802Y016838D01*
X016454Y016694D01*
X016188Y016429D01*
X016045Y016081D01*
X016045Y015705D01*
X016188Y015358D01*
X016454Y015092D01*
X016802Y014948D01*
X017177Y014948D01*
X017525Y015092D01*
X017791Y015358D01*
X017935Y015705D01*
X017935Y016081D01*
X017791Y016429D01*
X017525Y016694D01*
X017621Y016598D02*
X028440Y016598D01*
X028440Y016439D02*
X017780Y016439D01*
X017852Y016281D02*
X028440Y016281D01*
X028440Y016122D02*
X017918Y016122D01*
X017935Y015964D02*
X028440Y015964D01*
X028440Y015805D02*
X017935Y015805D01*
X017910Y015647D02*
X028440Y015647D01*
X028440Y015488D02*
X017845Y015488D01*
X017762Y015330D02*
X028440Y015330D01*
X028440Y015171D02*
X017604Y015171D01*
X017333Y015013D02*
X028440Y015013D01*
X028440Y014854D02*
X016000Y014854D01*
X016053Y014833D02*
X015863Y014911D01*
X015656Y014911D01*
X015466Y014833D01*
X015320Y014687D01*
X015241Y014496D01*
X015241Y014290D01*
X015320Y014100D01*
X015360Y014061D01*
X015360Y012004D01*
X015304Y011948D01*
X015239Y011791D01*
X015016Y012013D01*
X014503Y012013D01*
X014260Y011770D01*
X014160Y011870D01*
X014160Y013061D01*
X014199Y013100D01*
X014278Y013290D01*
X014278Y013496D01*
X014199Y013687D01*
X014053Y013833D01*
X013863Y013911D01*
X013656Y013911D01*
X013466Y013833D01*
X013320Y013687D01*
X013241Y013496D01*
X013241Y013290D01*
X013320Y013100D01*
X013360Y013061D01*
X013360Y011870D01*
X013260Y011770D01*
X013064Y011965D01*
X013199Y012100D01*
X013278Y012290D01*
X013278Y012496D01*
X013199Y012687D01*
X013160Y012726D01*
X013160Y013728D01*
X013486Y014054D01*
X013599Y014167D01*
X013660Y014314D01*
X013660Y015561D01*
X013699Y015600D01*
X013778Y015790D01*
X013778Y015996D01*
X013699Y016187D01*
X013553Y016333D01*
X013363Y016411D01*
X013156Y016411D01*
X012966Y016333D01*
X012820Y016187D01*
X012741Y015996D01*
X012741Y015790D01*
X012820Y015600D01*
X012860Y015561D01*
X012860Y014559D01*
X012420Y014120D01*
X012360Y013973D01*
X012360Y012726D01*
X012320Y012687D01*
X012241Y012496D01*
X012241Y012290D01*
X012320Y012100D01*
X012455Y011965D01*
X012260Y011770D01*
X012016Y012013D01*
X011503Y012013D01*
X011260Y011770D01*
X011016Y012013D01*
X010503Y012013D01*
X010260Y011770D01*
X010016Y012013D01*
X009503Y012013D01*
X009140Y011650D01*
X009140Y011136D01*
X009383Y010893D01*
X009140Y010650D01*
X009140Y010136D01*
X009483Y009793D01*
X008675Y009793D01*
X008597Y009871D01*
X008660Y010022D01*
X008660Y010265D01*
X008567Y010489D01*
X008412Y010643D01*
X008567Y010798D01*
X008660Y011022D01*
X008660Y011265D01*
X008567Y011489D01*
X008412Y011643D01*
X008567Y011798D01*
X008660Y012022D01*
X008660Y012265D01*
X008567Y012489D01*
X008412Y012643D01*
X008567Y012798D01*
X008660Y013022D01*
X008660Y013265D01*
X008567Y013489D01*
X008412Y013643D01*
X008567Y013798D01*
X008660Y014022D01*
X008660Y014265D01*
X008567Y014489D01*
X008395Y014660D01*
X008171Y014753D01*
X007348Y014753D01*
X007124Y014660D01*
X006952Y014489D01*
X006860Y014265D01*
X006860Y014022D01*
X006952Y013798D01*
X007107Y013643D01*
X006952Y013489D01*
X006860Y013265D01*
X006860Y013022D01*
X006952Y012798D01*
X007107Y012643D01*
X006952Y012489D01*
X006860Y012265D01*
X006860Y012022D01*
X006952Y011798D01*
X007107Y011643D01*
X006952Y011489D01*
X006860Y011265D01*
X006860Y011022D01*
X006952Y010798D01*
X007107Y010643D01*
X006952Y010489D01*
X006860Y010265D01*
X006860Y010022D01*
X006952Y009798D01*
X007107Y009643D01*
X006952Y009489D01*
X006860Y009265D01*
X006860Y009022D01*
X006952Y008798D01*
X007107Y008643D01*
X006952Y008489D01*
X006860Y008265D01*
X006860Y008022D01*
X006952Y007798D01*
X007124Y007626D01*
X007348Y007533D01*
X008171Y007533D01*
X008395Y007626D01*
X008553Y007784D01*
X009283Y007054D01*
X009425Y006996D01*
X009466Y006954D01*
X009656Y006875D01*
X009863Y006875D01*
X010053Y006954D01*
X010199Y007100D01*
X010278Y007290D01*
X010278Y007496D01*
X010199Y007687D01*
X010053Y007833D01*
X009863Y007911D01*
X009656Y007911D01*
X009586Y007882D01*
X008597Y008871D01*
X008648Y008993D01*
X009839Y008993D01*
X009986Y009054D01*
X010099Y009167D01*
X010705Y009773D01*
X011016Y009773D01*
X011260Y010016D01*
X011503Y009773D01*
X012016Y009773D01*
X012260Y010016D01*
X012503Y009773D01*
X013016Y009773D01*
X013260Y010016D01*
X013503Y009773D01*
X014016Y009773D01*
X014359Y010115D01*
X014561Y009913D01*
X014740Y009913D01*
X014740Y010373D01*
X014780Y010373D01*
X014780Y010413D01*
X015240Y010413D01*
X015240Y010592D01*
X015037Y010794D01*
X015380Y011136D01*
X015380Y011263D01*
X015455Y011187D01*
X015653Y011106D01*
X015860Y011106D01*
X015860Y011022D01*
X015952Y010798D01*
X016107Y010643D01*
X015952Y010489D01*
X015860Y010265D01*
X015860Y010022D01*
X015952Y009798D01*
X016124Y009626D01*
X016266Y009567D01*
X016223Y009545D01*
X016163Y009502D01*
X016111Y009449D01*
X016068Y009390D01*
X016034Y009324D01*
X016011Y009253D01*
X016000Y009180D01*
X016000Y009158D01*
X016745Y009158D01*
X016745Y009128D01*
X016000Y009128D01*
X016000Y009106D01*
X016011Y009033D01*
X016034Y008963D01*
X016068Y008897D01*
X016111Y008837D01*
X016163Y008785D01*
X016223Y008741D01*
X016266Y008719D01*
X016124Y008660D01*
X015952Y008489D01*
X015860Y008265D01*
X015860Y008022D01*
X015952Y007798D01*
X016124Y007626D01*
X016348Y007533D01*
X017171Y007533D01*
X017395Y007626D01*
X017567Y007798D01*
X017660Y008022D01*
X017660Y008265D01*
X017567Y008489D01*
X017395Y008660D01*
X017253Y008719D01*
X017296Y008741D01*
X017356Y008785D01*
X017408Y008837D01*
X017451Y008897D01*
X017485Y008963D01*
X017508Y009033D01*
X017520Y009106D01*
X017520Y009128D01*
X016775Y009128D01*
X016775Y009158D01*
X017520Y009158D01*
X017520Y009180D01*
X017508Y009253D01*
X017485Y009324D01*
X017451Y009390D01*
X017408Y009449D01*
X017356Y009502D01*
X017296Y009545D01*
X017253Y009567D01*
X017395Y009626D01*
X017567Y009798D01*
X017660Y010022D01*
X017660Y010265D01*
X017567Y010489D01*
X017412Y010643D01*
X017567Y010798D01*
X017660Y011022D01*
X017660Y011265D01*
X017567Y011489D01*
X017412Y011643D01*
X017567Y011798D01*
X017660Y012022D01*
X017660Y012265D01*
X017567Y012489D01*
X017412Y012643D01*
X017567Y012798D01*
X017660Y013022D01*
X017660Y013171D01*
X018192Y013703D01*
X019695Y013703D01*
X019621Y013630D01*
X019518Y013382D01*
X019518Y012405D01*
X019621Y012157D01*
X019811Y011967D01*
X020058Y011865D01*
X020327Y011865D01*
X020575Y011967D01*
X020764Y012157D01*
X020867Y012405D01*
X020867Y013382D01*
X020764Y013630D01*
X020691Y013703D01*
X021073Y013703D01*
X020999Y013630D01*
X020896Y013382D01*
X020896Y012405D01*
X020999Y012157D01*
X021189Y011967D01*
X021436Y011865D01*
X021705Y011865D01*
X021953Y011967D01*
X022142Y012157D01*
X022245Y012405D01*
X022245Y013382D01*
X022142Y013630D01*
X022069Y013703D01*
X022327Y013703D01*
X022389Y013642D01*
X022377Y013630D01*
X022274Y013382D01*
X022274Y012405D01*
X022377Y012157D01*
X022567Y011967D01*
X022814Y011865D01*
X023083Y011865D01*
X023330Y011967D01*
X023520Y012157D01*
X023623Y012405D01*
X023623Y013382D01*
X023520Y013630D01*
X023388Y013761D01*
X023388Y013792D01*
X023322Y013954D01*
X023198Y014077D01*
X022883Y014393D01*
X022759Y014516D01*
X022597Y014583D01*
X017922Y014583D01*
X017760Y014516D01*
X017615Y014371D01*
X017567Y014489D01*
X017395Y014660D01*
X017171Y014753D01*
X016348Y014753D01*
X016195Y014690D01*
X016053Y014833D01*
X016190Y014696D02*
X016209Y014696D01*
X016646Y015013D02*
X013660Y015013D01*
X013660Y015171D02*
X016375Y015171D01*
X016217Y015330D02*
X013660Y015330D01*
X013660Y015488D02*
X016134Y015488D01*
X016069Y015647D02*
X013718Y015647D01*
X013778Y015805D02*
X016045Y015805D01*
X016045Y015964D02*
X013778Y015964D01*
X013725Y016122D02*
X016062Y016122D01*
X016127Y016281D02*
X013605Y016281D01*
X013260Y015893D02*
X013260Y014393D01*
X012760Y013893D01*
X012760Y012393D01*
X013224Y012160D02*
X013360Y012160D01*
X013360Y012318D02*
X013278Y012318D01*
X013278Y012477D02*
X013360Y012477D01*
X013360Y012635D02*
X013220Y012635D01*
X013160Y012794D02*
X013360Y012794D01*
X013360Y012952D02*
X013160Y012952D01*
X013160Y013111D02*
X013316Y013111D01*
X013250Y013269D02*
X013160Y013269D01*
X013160Y013428D02*
X013241Y013428D01*
X013279Y013586D02*
X013160Y013586D01*
X013177Y013745D02*
X013378Y013745D01*
X013335Y013903D02*
X013637Y013903D01*
X013494Y014062D02*
X015358Y014062D01*
X015360Y013903D02*
X013882Y013903D01*
X014141Y013745D02*
X015360Y013745D01*
X015360Y013586D02*
X014240Y013586D01*
X014278Y013428D02*
X015360Y013428D01*
X015360Y013269D02*
X014269Y013269D01*
X014203Y013111D02*
X015360Y013111D01*
X015360Y012952D02*
X014160Y012952D01*
X014160Y012794D02*
X015360Y012794D01*
X015360Y012635D02*
X014160Y012635D01*
X014160Y012477D02*
X015360Y012477D01*
X015360Y012318D02*
X014160Y012318D01*
X014160Y012160D02*
X015360Y012160D01*
X015357Y012001D02*
X015028Y012001D01*
X015187Y011843D02*
X015260Y011843D01*
X015760Y011643D02*
X015760Y014393D01*
X015241Y014379D02*
X013660Y014379D01*
X013660Y014537D02*
X015258Y014537D01*
X015329Y014696D02*
X013660Y014696D01*
X013660Y014854D02*
X015519Y014854D01*
X015270Y014220D02*
X013621Y014220D01*
X012838Y014537D02*
X008518Y014537D01*
X008612Y014379D02*
X012679Y014379D01*
X012521Y014220D02*
X008660Y014220D01*
X008660Y014062D02*
X012396Y014062D01*
X012360Y013903D02*
X008610Y013903D01*
X008514Y013745D02*
X012360Y013745D01*
X012360Y013586D02*
X008469Y013586D01*
X008592Y013428D02*
X012360Y013428D01*
X012360Y013269D02*
X008658Y013269D01*
X008660Y013111D02*
X012360Y013111D01*
X012360Y012952D02*
X008631Y012952D01*
X008563Y012794D02*
X012360Y012794D01*
X012299Y012635D02*
X008420Y012635D01*
X008572Y012477D02*
X012241Y012477D01*
X012241Y012318D02*
X008637Y012318D01*
X008660Y012160D02*
X012295Y012160D01*
X012419Y012001D02*
X012028Y012001D01*
X012187Y011843D02*
X012332Y011843D01*
X013100Y012001D02*
X013360Y012001D01*
X013332Y011843D02*
X013187Y011843D01*
X013760Y011393D02*
X013760Y013393D01*
X012860Y014696D02*
X008310Y014696D01*
X007873Y015013D02*
X012860Y015013D01*
X012860Y015171D02*
X008144Y015171D01*
X008065Y015092D02*
X008331Y015358D01*
X008475Y015705D01*
X008475Y016081D01*
X008331Y016429D01*
X008065Y016694D01*
X007717Y016838D01*
X007342Y016838D01*
X006994Y016694D01*
X006728Y016429D01*
X006585Y016081D01*
X006585Y015705D01*
X006728Y015358D01*
X006994Y015092D01*
X007342Y014948D01*
X007717Y014948D01*
X008065Y015092D01*
X008302Y015330D02*
X012860Y015330D01*
X012860Y015488D02*
X008385Y015488D01*
X008450Y015647D02*
X012801Y015647D01*
X012741Y015805D02*
X008475Y015805D01*
X008475Y015964D02*
X012741Y015964D01*
X012794Y016122D02*
X008458Y016122D01*
X008392Y016281D02*
X012914Y016281D01*
X012860Y014854D02*
X005080Y014854D01*
X005080Y014696D02*
X007209Y014696D01*
X007001Y014537D02*
X005080Y014537D01*
X005080Y014379D02*
X006907Y014379D01*
X006860Y014220D02*
X005080Y014220D01*
X005080Y014062D02*
X006860Y014062D01*
X006909Y013903D02*
X005080Y013903D01*
X005080Y013745D02*
X007005Y013745D01*
X007050Y013586D02*
X005080Y013586D01*
X005080Y013428D02*
X006927Y013428D01*
X006861Y013269D02*
X005080Y013269D01*
X005080Y013111D02*
X006860Y013111D01*
X006888Y012952D02*
X005080Y012952D01*
X005080Y012794D02*
X006956Y012794D01*
X007099Y012635D02*
X005080Y012635D01*
X005080Y012477D02*
X006947Y012477D01*
X006882Y012318D02*
X005080Y012318D01*
X005080Y012160D02*
X006860Y012160D01*
X006868Y012001D02*
X005080Y012001D01*
X005080Y011843D02*
X006934Y011843D01*
X007066Y011684D02*
X005080Y011684D01*
X005080Y011526D02*
X006989Y011526D01*
X006902Y011367D02*
X005080Y011367D01*
X005080Y011209D02*
X006860Y011209D01*
X006860Y011050D02*
X005080Y011050D01*
X005080Y010892D02*
X006913Y010892D01*
X007017Y010733D02*
X005080Y010733D01*
X005080Y010575D02*
X007038Y010575D01*
X006922Y010416D02*
X005080Y010416D01*
X005080Y010258D02*
X006860Y010258D01*
X006860Y010099D02*
X005080Y010099D01*
X005080Y009941D02*
X006893Y009941D01*
X006968Y009782D02*
X005080Y009782D01*
X005080Y009624D02*
X007087Y009624D01*
X006943Y009465D02*
X005080Y009465D01*
X005080Y009307D02*
X006877Y009307D01*
X006860Y009148D02*
X005080Y009148D01*
X005080Y008990D02*
X006873Y008990D01*
X006938Y008831D02*
X005080Y008831D01*
X005080Y008673D02*
X007077Y008673D01*
X006978Y008514D02*
X005080Y008514D01*
X005080Y008356D02*
X006897Y008356D01*
X006860Y008197D02*
X005080Y008197D01*
X005080Y008039D02*
X006860Y008039D01*
X006918Y007880D02*
X005080Y007880D01*
X005080Y007722D02*
X007028Y007722D01*
X007276Y007563D02*
X005080Y007563D01*
X005080Y007405D02*
X008932Y007405D01*
X008774Y007563D02*
X008243Y007563D01*
X008491Y007722D02*
X008615Y007722D01*
X009271Y008197D02*
X015860Y008197D01*
X015860Y008039D02*
X009430Y008039D01*
X009113Y008356D02*
X015897Y008356D01*
X015978Y008514D02*
X008954Y008514D01*
X008796Y008673D02*
X016154Y008673D01*
X016117Y008831D02*
X008637Y008831D01*
X008646Y008990D02*
X016025Y008990D01*
X016028Y009307D02*
X010239Y009307D01*
X010099Y009167D02*
X010099Y009167D01*
X010080Y009148D02*
X016745Y009148D01*
X016775Y009148D02*
X025153Y009148D01*
X025146Y009132D02*
X025249Y009380D01*
X025439Y009569D01*
X025686Y009672D01*
X025955Y009672D01*
X026203Y009569D01*
X026392Y009380D01*
X026495Y009132D01*
X026495Y008155D01*
X026392Y007907D01*
X026203Y007717D01*
X025955Y007615D01*
X025686Y007615D01*
X025439Y007717D01*
X025249Y007907D01*
X025146Y008155D01*
X025146Y009132D01*
X025146Y008990D02*
X017494Y008990D01*
X017402Y008831D02*
X025146Y008831D01*
X025146Y008673D02*
X017365Y008673D01*
X017541Y008514D02*
X025146Y008514D01*
X025146Y008356D02*
X017622Y008356D01*
X017660Y008197D02*
X025146Y008197D01*
X025194Y008039D02*
X017660Y008039D01*
X017601Y007880D02*
X025276Y007880D01*
X025434Y007722D02*
X017491Y007722D01*
X017243Y007563D02*
X028440Y007563D01*
X028440Y007405D02*
X010278Y007405D01*
X010259Y007246D02*
X016459Y007246D01*
X016454Y007244D02*
X016188Y006979D01*
X016045Y006631D01*
X016045Y006255D01*
X016188Y005908D01*
X016454Y005642D01*
X016802Y005498D01*
X017177Y005498D01*
X017525Y005642D01*
X017791Y005908D01*
X017935Y006255D01*
X017935Y006631D01*
X017791Y006979D01*
X017525Y007244D01*
X017177Y007388D01*
X016802Y007388D01*
X016454Y007244D01*
X016298Y007088D02*
X010187Y007088D01*
X009993Y006929D02*
X016168Y006929D01*
X016102Y006771D02*
X008417Y006771D01*
X008475Y006631D02*
X008331Y006979D01*
X008065Y007244D01*
X007717Y007388D01*
X007342Y007388D01*
X006994Y007244D01*
X006728Y006979D01*
X006585Y006631D01*
X006585Y006255D01*
X006728Y005908D01*
X006994Y005642D01*
X007342Y005498D01*
X007717Y005498D01*
X008065Y005642D01*
X008331Y005908D01*
X008475Y006255D01*
X008475Y006631D01*
X008475Y006612D02*
X016045Y006612D01*
X016045Y006454D02*
X008475Y006454D01*
X008475Y006295D02*
X016045Y006295D01*
X016094Y006137D02*
X008425Y006137D01*
X008360Y005978D02*
X016159Y005978D01*
X016277Y005820D02*
X008242Y005820D01*
X008084Y005661D02*
X016435Y005661D01*
X016791Y005503D02*
X007728Y005503D01*
X007331Y005503D02*
X005080Y005503D01*
X005080Y005661D02*
X006975Y005661D01*
X006817Y005820D02*
X005080Y005820D01*
X005080Y005978D02*
X006699Y005978D01*
X006634Y006137D02*
X005080Y006137D01*
X005080Y006295D02*
X006585Y006295D01*
X006585Y006454D02*
X005080Y006454D01*
X005080Y006612D02*
X006585Y006612D01*
X006642Y006771D02*
X005080Y006771D01*
X005080Y006929D02*
X006708Y006929D01*
X006838Y007088D02*
X005080Y007088D01*
X005080Y007246D02*
X006999Y007246D01*
X008060Y007246D02*
X009091Y007246D01*
X009249Y007088D02*
X008221Y007088D01*
X008351Y006929D02*
X009526Y006929D01*
X009510Y007393D02*
X007760Y009143D01*
X008510Y009393D02*
X007760Y010143D01*
X008481Y010575D02*
X009140Y010575D01*
X009140Y010416D02*
X008597Y010416D01*
X008660Y010258D02*
X009140Y010258D01*
X009177Y010099D02*
X008660Y010099D01*
X008626Y009941D02*
X009335Y009941D01*
X009760Y009393D02*
X008510Y009393D01*
X009760Y009393D02*
X010760Y010393D01*
X011184Y009941D02*
X011335Y009941D01*
X011494Y009782D02*
X011025Y009782D01*
X010556Y009624D02*
X016130Y009624D01*
X016127Y009465D02*
X010397Y009465D01*
X012025Y009782D02*
X012494Y009782D01*
X012335Y009941D02*
X012184Y009941D01*
X013025Y009782D02*
X013494Y009782D01*
X013335Y009941D02*
X013184Y009941D01*
X014025Y009782D02*
X015968Y009782D01*
X015893Y009941D02*
X014986Y009941D01*
X014958Y009913D02*
X015240Y010194D01*
X015240Y010373D01*
X014780Y010373D01*
X014780Y009913D01*
X014958Y009913D01*
X014780Y009941D02*
X014740Y009941D01*
X014740Y010099D02*
X014780Y010099D01*
X014780Y010258D02*
X014740Y010258D01*
X014533Y009941D02*
X014184Y009941D01*
X014342Y010099D02*
X014375Y010099D01*
X015144Y010099D02*
X015860Y010099D01*
X015860Y010258D02*
X015240Y010258D01*
X015240Y010416D02*
X015922Y010416D01*
X016038Y010575D02*
X015240Y010575D01*
X015098Y010733D02*
X016017Y010733D01*
X015913Y010892D02*
X015135Y010892D01*
X015293Y011050D02*
X015860Y011050D01*
X015433Y011209D02*
X015380Y011209D01*
X014491Y012001D02*
X014160Y012001D01*
X014187Y011843D02*
X014332Y011843D01*
X011491Y012001D02*
X011028Y012001D01*
X011187Y011843D02*
X011332Y011843D01*
X010491Y012001D02*
X010028Y012001D01*
X010187Y011843D02*
X010332Y011843D01*
X009491Y012001D02*
X008651Y012001D01*
X008585Y011843D02*
X009332Y011843D01*
X009174Y011684D02*
X008453Y011684D01*
X008530Y011526D02*
X009140Y011526D01*
X009140Y011367D02*
X008617Y011367D01*
X008660Y011209D02*
X009140Y011209D01*
X009226Y011050D02*
X008660Y011050D01*
X008606Y010892D02*
X009381Y010892D01*
X009223Y010733D02*
X008502Y010733D01*
X009938Y007880D02*
X015918Y007880D01*
X016028Y007722D02*
X010164Y007722D01*
X010250Y007563D02*
X016276Y007563D01*
X017520Y007246D02*
X028440Y007246D01*
X028440Y007088D02*
X017681Y007088D01*
X017811Y006929D02*
X028440Y006929D01*
X028440Y006771D02*
X017877Y006771D01*
X017935Y006612D02*
X028440Y006612D01*
X028440Y006454D02*
X017935Y006454D01*
X017935Y006295D02*
X028440Y006295D01*
X028440Y006137D02*
X017885Y006137D01*
X017820Y005978D02*
X028440Y005978D01*
X028440Y005820D02*
X017702Y005820D01*
X017544Y005661D02*
X028440Y005661D01*
X028440Y005503D02*
X017188Y005503D01*
X017491Y009307D02*
X025219Y009307D01*
X025335Y009465D02*
X017392Y009465D01*
X017389Y009624D02*
X025570Y009624D01*
X026071Y009624D02*
X028440Y009624D01*
X028440Y009782D02*
X017551Y009782D01*
X017626Y009941D02*
X028440Y009941D01*
X028440Y010099D02*
X017660Y010099D01*
X017660Y010258D02*
X028440Y010258D01*
X028440Y010416D02*
X017597Y010416D01*
X017481Y010575D02*
X028440Y010575D01*
X028440Y010733D02*
X017502Y010733D01*
X017606Y010892D02*
X028440Y010892D01*
X028440Y011050D02*
X017660Y011050D01*
X017660Y011209D02*
X028440Y011209D01*
X028440Y011367D02*
X017617Y011367D01*
X017530Y011526D02*
X028440Y011526D01*
X028440Y011684D02*
X017453Y011684D01*
X017585Y011843D02*
X028440Y011843D01*
X028440Y012001D02*
X023364Y012001D01*
X023521Y012160D02*
X023950Y012160D01*
X023978Y012131D02*
X024046Y012082D01*
X024121Y012044D01*
X024201Y012018D01*
X024284Y012005D01*
X024288Y012005D01*
X024288Y012855D01*
X023792Y012855D01*
X023792Y012497D01*
X023805Y012414D01*
X023831Y012334D01*
X023869Y012259D01*
X023919Y012191D01*
X023978Y012131D01*
X023839Y012318D02*
X023587Y012318D01*
X023623Y012477D02*
X023795Y012477D01*
X023792Y012635D02*
X023623Y012635D01*
X023623Y012794D02*
X023792Y012794D01*
X023792Y012931D02*
X024288Y012931D01*
X024288Y012855D01*
X024365Y012855D01*
X024365Y012931D01*
X024861Y012931D01*
X024861Y013290D01*
X024848Y013373D01*
X024822Y013453D01*
X024783Y013528D01*
X024734Y013596D01*
X024675Y013655D01*
X024606Y013705D01*
X024532Y013743D01*
X024452Y013769D01*
X024368Y013782D01*
X024365Y013782D01*
X024365Y012931D01*
X024288Y012931D01*
X024288Y013782D01*
X024284Y013782D01*
X024201Y013769D01*
X024121Y013743D01*
X024046Y013705D01*
X023978Y013655D01*
X023919Y013596D01*
X023869Y013528D01*
X023831Y013453D01*
X023805Y013373D01*
X023792Y013290D01*
X023792Y012931D01*
X023792Y012952D02*
X023623Y012952D01*
X023623Y013111D02*
X023792Y013111D01*
X023792Y013269D02*
X023623Y013269D01*
X023604Y013428D02*
X023823Y013428D01*
X023912Y013586D02*
X023538Y013586D01*
X023405Y013745D02*
X024127Y013745D01*
X024288Y013745D02*
X024365Y013745D01*
X024365Y013586D02*
X024288Y013586D01*
X024288Y013428D02*
X024365Y013428D01*
X024365Y013269D02*
X024288Y013269D01*
X024288Y013111D02*
X024365Y013111D01*
X024365Y012952D02*
X024288Y012952D01*
X024365Y012855D02*
X024861Y012855D01*
X024861Y012497D01*
X024848Y012414D01*
X024822Y012334D01*
X024783Y012259D01*
X024734Y012191D01*
X024675Y012131D01*
X024606Y012082D01*
X024532Y012044D01*
X024452Y012018D01*
X024368Y012005D01*
X024365Y012005D01*
X024365Y012855D01*
X024365Y012794D02*
X024288Y012794D01*
X024288Y012635D02*
X024365Y012635D01*
X024365Y012477D02*
X024288Y012477D01*
X024288Y012318D02*
X024365Y012318D01*
X024365Y012160D02*
X024288Y012160D01*
X024703Y012160D02*
X028440Y012160D01*
X028440Y012318D02*
X024814Y012318D01*
X024858Y012477D02*
X028440Y012477D01*
X028440Y012635D02*
X024861Y012635D01*
X024861Y012794D02*
X028440Y012794D01*
X028440Y012952D02*
X024861Y012952D01*
X024861Y013111D02*
X028440Y013111D01*
X028440Y013269D02*
X024861Y013269D01*
X024830Y013428D02*
X028440Y013428D01*
X028440Y013586D02*
X024741Y013586D01*
X024525Y013745D02*
X028440Y013745D01*
X028440Y013903D02*
X023342Y013903D01*
X023213Y014062D02*
X028440Y014062D01*
X028440Y014220D02*
X023055Y014220D01*
X022896Y014379D02*
X028440Y014379D01*
X028440Y014537D02*
X022708Y014537D01*
X022359Y013586D02*
X022160Y013586D01*
X022226Y013428D02*
X022293Y013428D01*
X022274Y013269D02*
X022245Y013269D01*
X022245Y013111D02*
X022274Y013111D01*
X022274Y012952D02*
X022245Y012952D01*
X022245Y012794D02*
X022274Y012794D01*
X022274Y012635D02*
X022245Y012635D01*
X022245Y012477D02*
X022274Y012477D01*
X022310Y012318D02*
X022209Y012318D01*
X022143Y012160D02*
X022376Y012160D01*
X022532Y012001D02*
X021987Y012001D01*
X021155Y012001D02*
X020609Y012001D01*
X020765Y012160D02*
X020998Y012160D01*
X020932Y012318D02*
X020831Y012318D01*
X020867Y012477D02*
X020896Y012477D01*
X020896Y012635D02*
X020867Y012635D01*
X020867Y012794D02*
X020896Y012794D01*
X020896Y012952D02*
X020867Y012952D01*
X020867Y013111D02*
X020896Y013111D01*
X020896Y013269D02*
X020867Y013269D01*
X020848Y013428D02*
X020915Y013428D01*
X020981Y013586D02*
X020782Y013586D01*
X019603Y013586D02*
X018075Y013586D01*
X017916Y013428D02*
X019537Y013428D01*
X019518Y013269D02*
X017758Y013269D01*
X017660Y013111D02*
X019518Y013111D01*
X019518Y012952D02*
X017631Y012952D01*
X017563Y012794D02*
X019518Y012794D01*
X019518Y012635D02*
X017420Y012635D01*
X017572Y012477D02*
X019518Y012477D01*
X019554Y012318D02*
X017637Y012318D01*
X017660Y012160D02*
X019620Y012160D01*
X019777Y012001D02*
X017651Y012001D01*
X017612Y014379D02*
X017623Y014379D01*
X017518Y014537D02*
X017811Y014537D01*
X017310Y014696D02*
X028440Y014696D01*
X028440Y009465D02*
X027458Y009465D01*
X027479Y009455D02*
X027404Y009493D01*
X027324Y009519D01*
X027241Y009532D01*
X027237Y009532D01*
X027237Y008681D01*
X027733Y008681D01*
X027733Y009040D01*
X027720Y009123D01*
X027694Y009203D01*
X027655Y009278D01*
X027606Y009346D01*
X027547Y009405D01*
X027479Y009455D01*
X027634Y009307D02*
X028440Y009307D01*
X028440Y009148D02*
X027711Y009148D01*
X027733Y008990D02*
X028440Y008990D01*
X028440Y008831D02*
X027733Y008831D01*
X027733Y008605D02*
X027237Y008605D01*
X027237Y008681D01*
X027160Y008681D01*
X027160Y008605D01*
X026664Y008605D01*
X026664Y008247D01*
X026677Y008164D01*
X026703Y008084D01*
X026741Y008009D01*
X026791Y007941D01*
X026850Y007881D01*
X026918Y007832D01*
X026993Y007794D01*
X027073Y007768D01*
X027156Y007755D01*
X027160Y007755D01*
X027160Y008605D01*
X027237Y008605D01*
X027237Y007755D01*
X027241Y007755D01*
X027324Y007768D01*
X027404Y007794D01*
X027479Y007832D01*
X027547Y007881D01*
X027606Y007941D01*
X027655Y008009D01*
X027694Y008084D01*
X027720Y008164D01*
X027733Y008247D01*
X027733Y008605D01*
X027733Y008514D02*
X028440Y008514D01*
X028440Y008356D02*
X027733Y008356D01*
X027725Y008197D02*
X028440Y008197D01*
X028440Y008039D02*
X027671Y008039D01*
X027545Y007880D02*
X028440Y007880D01*
X028440Y007722D02*
X026207Y007722D01*
X026366Y007880D02*
X026852Y007880D01*
X026726Y008039D02*
X026447Y008039D01*
X026495Y008197D02*
X026672Y008197D01*
X026664Y008356D02*
X026495Y008356D01*
X026495Y008514D02*
X026664Y008514D01*
X026664Y008681D02*
X027160Y008681D01*
X027160Y009532D01*
X027156Y009532D01*
X027073Y009519D01*
X026993Y009493D01*
X026918Y009455D01*
X026850Y009405D01*
X026791Y009346D01*
X026741Y009278D01*
X026703Y009203D01*
X026677Y009123D01*
X026664Y009040D01*
X026664Y008681D01*
X026664Y008831D02*
X026495Y008831D01*
X026495Y008673D02*
X027160Y008673D01*
X027237Y008673D02*
X028440Y008673D01*
X027237Y008831D02*
X027160Y008831D01*
X027160Y008990D02*
X027237Y008990D01*
X027237Y009148D02*
X027160Y009148D01*
X027160Y009307D02*
X027237Y009307D01*
X027237Y009465D02*
X027160Y009465D01*
X026939Y009465D02*
X026307Y009465D01*
X026422Y009307D02*
X026763Y009307D01*
X026686Y009148D02*
X026488Y009148D01*
X026495Y008990D02*
X026664Y008990D01*
X027160Y008514D02*
X027237Y008514D01*
X027237Y008356D02*
X027160Y008356D01*
X027160Y008197D02*
X027237Y008197D01*
X027237Y008039D02*
X027160Y008039D01*
X027160Y007880D02*
X027237Y007880D01*
X028440Y005344D02*
X005080Y005344D01*
X005080Y005186D02*
X028440Y005186D01*
X028440Y005027D02*
X005080Y005027D01*
X005080Y004869D02*
X028440Y004869D01*
X009760Y007393D02*
X009510Y007393D01*
X007186Y015013D02*
X005080Y015013D01*
X005080Y015171D02*
X006915Y015171D01*
X006757Y015330D02*
X005080Y015330D01*
X005080Y015488D02*
X006674Y015488D01*
X006609Y015647D02*
X005080Y015647D01*
X005080Y015805D02*
X006585Y015805D01*
X006585Y015964D02*
X005080Y015964D01*
X005080Y016122D02*
X006602Y016122D01*
X006667Y016281D02*
X005080Y016281D01*
X005080Y016439D02*
X006739Y016439D01*
X006898Y016598D02*
X005080Y016598D01*
X005080Y016756D02*
X007144Y016756D01*
X007915Y016756D02*
X016604Y016756D01*
X016358Y016598D02*
X008161Y016598D01*
X008320Y016439D02*
X016199Y016439D01*
D14*
X018510Y016143D03*
X021010Y016393D03*
X023510Y016143D03*
X025760Y013143D03*
X027760Y012893D03*
X026510Y011893D03*
X025260Y011143D03*
X024010Y011143D03*
X027760Y007643D03*
X027760Y006643D03*
X026510Y006643D03*
X026760Y005393D03*
X023010Y005143D03*
X021510Y005893D03*
X020510Y005393D03*
X017760Y005143D03*
X015760Y005393D03*
X014510Y005643D03*
X015010Y007393D03*
X013010Y007393D03*
X010760Y007643D03*
X009760Y007393D03*
X009260Y006643D03*
X009760Y005893D03*
X006010Y005643D03*
X005760Y006643D03*
X006260Y009643D03*
X006510Y010643D03*
X012760Y012393D03*
X013760Y013393D03*
X014510Y013393D03*
X015760Y014393D03*
X013260Y015893D03*
X012510Y016643D03*
X010010Y015143D03*
X009260Y016393D03*
X006010Y015893D03*
X015510Y009893D03*
X015010Y008893D03*
D15*
X016760Y013143D02*
X017010Y013143D01*
X018010Y014143D01*
X022510Y014143D01*
X022948Y013704D01*
X022948Y012893D01*
D16*
X015760Y011643D03*
M02*
