%
M48
M72
T01C0.0236
T02C0.0276
T03C0.0380
T04C0.0400
T05C0.0472
T06C0.1250
%
T01
X6010Y5643
X5760Y6643
X9260Y6643
X9760Y5893
X9760Y7393
X10760Y7643
X13010Y7393
X15010Y7393
X15010Y8893
X15510Y9893
X12760Y12393
X13760Y13393
X14510Y13393
X15760Y14393
X13260Y15893
X12510Y16643
X10010Y15143
X9260Y16393
X6010Y15893
X6510Y10643
X6260Y9643
X14510Y5643
X15760Y5393
X17760Y5143
X20510Y5393
X21510Y5893
X23010Y5143
X26510Y6643
X27760Y6643
X27760Y7643
X26760Y5393
X25260Y11143
X24010Y11143
X26510Y11893
X27760Y12893
X25760Y13143
X23510Y16143
X21010Y16393
X18510Y16143
T02
X15760Y11643
T03
X16760Y11143
X16760Y10143
X16760Y9143
X16760Y8143
X16760Y12143
X16760Y13143
X16760Y14143
X7760Y14143
X7760Y13143
X7760Y12143
X7760Y11143
X7760Y10143
X7760Y9143
X7760Y8143
T04
X9760Y10393
X10760Y10393
X11760Y10393
X12760Y10393
X13760Y10393
X14760Y10393
X14760Y11393
X13760Y11393
X12760Y11393
X11760Y11393
X10760Y11393
X9760Y11393
T05
X20193Y12893
X21571Y12893
X22948Y12893
X24326Y12893
X25821Y8643
X27198Y8643
T06
X16990Y6443
X7530Y6443
X7530Y15893
X16990Y15893
M30
