G75*
%MOIN*%
%OFA0B0*%
%FSLAX24Y24*%
%IPPOS*%
%LPD*%
%AMOC8*
5,1,8,0,0,1.08239X$1,22.5*
%
%ADD10C,0.0660*%
%ADD11C,0.1330*%
%ADD12C,0.0789*%
%ADD13OC8,0.0680*%
%ADD14R,0.0592X0.0671*%
%ADD15R,0.0474X0.0513*%
%ADD16R,0.0671X0.0592*%
%ADD17R,0.0513X0.0474*%
%ADD18R,0.0651X0.0257*%
%ADD19R,0.0710X0.1655*%
%ADD20R,0.1025X0.1104*%
%ADD21R,0.0789X0.0710*%
%ADD22R,0.0769X0.1222*%
%ADD23R,0.0218X0.0434*%
%ADD24R,0.0356X0.0592*%
%ADD25C,0.0476*%
%ADD26C,0.0516*%
D10*
X007470Y008143D02*
X008050Y008143D01*
X008050Y009143D02*
X007470Y009143D01*
X007470Y010143D02*
X008050Y010143D01*
X008050Y011143D02*
X007470Y011143D01*
X007470Y012143D02*
X008050Y012143D01*
X008050Y013143D02*
X007470Y013143D01*
X007470Y014143D02*
X008050Y014143D01*
X016470Y014143D02*
X017050Y014143D01*
X017050Y013143D02*
X016470Y013143D01*
X016470Y012143D02*
X017050Y012143D01*
X017050Y011143D02*
X016470Y011143D01*
X016470Y010143D02*
X017050Y010143D01*
X017050Y009143D02*
X016470Y009143D01*
X016470Y008143D02*
X017050Y008143D01*
D11*
X016990Y006443D03*
X007530Y006443D03*
X007530Y015893D03*
X016990Y015893D03*
D12*
X020193Y013248D02*
X020193Y012539D01*
X021571Y012539D02*
X021571Y013248D01*
X022948Y013248D02*
X022948Y012539D01*
X024326Y012539D02*
X024326Y013248D01*
X025821Y008998D02*
X025821Y008289D01*
X027198Y008289D02*
X027198Y008998D01*
D13*
X014760Y010393D03*
X013760Y010393D03*
X012760Y010393D03*
X011760Y010393D03*
X010760Y010393D03*
X009760Y010393D03*
X009760Y011393D03*
X010760Y011393D03*
X011760Y011393D03*
X012760Y011393D03*
X013760Y011393D03*
X014760Y011393D03*
D14*
X006634Y007643D03*
X005885Y007643D03*
X010635Y005893D03*
X011384Y005893D03*
X011634Y015893D03*
X010885Y015893D03*
D15*
X009844Y014143D03*
X009175Y014143D03*
X009175Y012643D03*
X009844Y012643D03*
X015175Y013643D03*
X015844Y013643D03*
X015594Y015893D03*
X014925Y015893D03*
X022925Y011643D03*
X023594Y011643D03*
X012844Y005893D03*
X012175Y005893D03*
X006594Y008393D03*
X005925Y008393D03*
D16*
X009010Y008269D03*
X009010Y009017D03*
X010260Y009017D03*
X010260Y008269D03*
D17*
X011010Y008309D03*
X011010Y008978D03*
X006260Y012059D03*
X006260Y012728D03*
X006260Y013809D03*
X006260Y014478D03*
X010925Y014893D03*
X011594Y014893D03*
X015010Y014559D03*
X015010Y015228D03*
D18*
X014126Y015265D03*
X014126Y015521D03*
X014126Y015776D03*
X014126Y015009D03*
X012393Y015009D03*
X012393Y015265D03*
X012393Y015521D03*
X012393Y015777D03*
D19*
X023760Y008791D03*
X023760Y005996D03*
D20*
X019010Y005633D03*
X019010Y008153D03*
D21*
X021510Y007694D03*
X021510Y006592D03*
D22*
X021948Y009143D03*
X020571Y009143D03*
D23*
X012393Y009025D03*
X012137Y009025D03*
X011882Y009025D03*
X011626Y009025D03*
X011626Y006761D03*
X011882Y006761D03*
X012137Y006761D03*
X012393Y006761D03*
D24*
X014885Y012643D03*
X015634Y012643D03*
D25*
X006010Y005643D03*
X005760Y006643D03*
X009260Y006643D03*
X009760Y005893D03*
X009760Y007393D03*
X010760Y007643D03*
X013010Y007393D03*
X015010Y007393D03*
X015010Y008893D03*
X015510Y009893D03*
X012760Y012393D03*
X013760Y013393D03*
X014510Y013393D03*
X015760Y014393D03*
X013260Y015893D03*
X012510Y016643D03*
X010010Y015143D03*
X009260Y016393D03*
X006010Y015893D03*
X006510Y010643D03*
X006260Y009643D03*
X014510Y005643D03*
X015760Y005393D03*
X017760Y005143D03*
X020510Y005393D03*
X021510Y005893D03*
X023010Y005143D03*
X026510Y006643D03*
X027760Y006643D03*
X027760Y007643D03*
X026760Y005393D03*
X025260Y011143D03*
X024010Y011143D03*
X026510Y011893D03*
X027760Y012893D03*
X025760Y013143D03*
X023510Y016143D03*
X021010Y016393D03*
X018510Y016143D03*
D26*
X015760Y011643D03*
M02*
