G75*
%MOIN*%
%OFA0B0*%
%FSLAX24Y24*%
%IPPOS*%
%LPD*%
%AMOC8*
5,1,8,0,0,1.08239X$1,22.5*
%
%ADD10C,0.1310*%
%ADD11C,0.0630*%
%ADD12C,0.0769*%
%ADD13OC8,0.0660*%
%ADD14C,0.0660*%
%ADD15C,0.0535*%
%ADD16C,0.1035*%
%ADD17C,0.0496*%
%ADD18C,0.0591*%
%ADD19C,0.1241*%
%ADD20C,0.0651*%
%ADD21OC8,0.0600*%
%ADD22C,0.0456*%
D10*
X052430Y039893D03*
X078930Y039893D03*
X105430Y039893D03*
X132680Y041893D03*
X007680Y041893D03*
D11*
X013680Y034393D03*
X014680Y034393D03*
X015680Y034393D03*
X016680Y034393D03*
X017680Y034393D03*
X018680Y034393D03*
X019680Y034393D03*
X020680Y034393D03*
X021680Y034393D03*
X022680Y034393D03*
X023680Y034393D03*
X024680Y034393D03*
X025680Y034393D03*
X026680Y034393D03*
X025680Y029393D03*
X023680Y029393D03*
X022680Y029393D03*
X021680Y029393D03*
X021680Y028393D03*
X020680Y028393D03*
X019680Y028393D03*
X018680Y028393D03*
X017680Y028393D03*
X016680Y028393D03*
X015680Y028393D03*
X014680Y028393D03*
X013680Y028393D03*
X013680Y029393D03*
X013680Y030393D03*
X013680Y031393D03*
X013680Y032393D03*
X013680Y033393D03*
X022680Y028393D03*
X023680Y028393D03*
X024680Y028393D03*
X025680Y028393D03*
X026680Y028393D03*
D12*
X023885Y042043D02*
X023885Y042752D01*
X022507Y042752D02*
X022507Y042043D01*
D13*
X036680Y041893D03*
X037680Y041893D03*
X038680Y041893D03*
X039680Y041893D03*
X040680Y041893D03*
X041680Y041893D03*
X041680Y042893D03*
X040680Y042893D03*
X039680Y042893D03*
X038680Y042893D03*
X037680Y042893D03*
X036680Y042893D03*
X063180Y042893D03*
X063180Y041893D03*
X064180Y041893D03*
X065180Y041893D03*
X066180Y041893D03*
X067180Y041893D03*
X068180Y041893D03*
X068180Y042893D03*
X067180Y042893D03*
X066180Y042893D03*
X065180Y042893D03*
X064180Y042893D03*
X089680Y042893D03*
X089680Y041893D03*
X090680Y041893D03*
X091680Y041893D03*
X092680Y041893D03*
X093680Y041893D03*
X094680Y041893D03*
X094680Y042893D03*
X093680Y042893D03*
X092680Y042893D03*
X091680Y042893D03*
X090680Y042893D03*
X116180Y042893D03*
X116180Y041893D03*
X117180Y041893D03*
X118180Y041893D03*
X119180Y041893D03*
X120180Y041893D03*
X121180Y041893D03*
X121180Y042893D03*
X120180Y042893D03*
X119180Y042893D03*
X118180Y042893D03*
X117180Y042893D03*
D14*
X120680Y023693D02*
X120680Y023093D01*
X121680Y023093D02*
X121680Y023693D01*
X128680Y023693D02*
X128680Y023093D01*
X129680Y023093D02*
X129680Y023693D01*
X101180Y023693D02*
X101180Y023093D01*
X100180Y023093D02*
X100180Y023693D01*
X093180Y023693D02*
X093180Y023093D01*
X092180Y023093D02*
X092180Y023693D01*
X072680Y023693D02*
X072680Y023093D01*
X071680Y023093D02*
X071680Y023693D01*
X064680Y023693D02*
X064680Y023093D01*
X063680Y023093D02*
X063680Y023693D01*
X044180Y023693D02*
X044180Y023093D01*
X043180Y023093D02*
X043180Y023693D01*
X036180Y023693D02*
X036180Y023093D01*
X035180Y023093D02*
X035180Y023693D01*
X032230Y038143D02*
X031630Y038143D01*
X031630Y039143D02*
X032230Y039143D01*
D15*
X039180Y031893D03*
X038180Y030893D03*
X039180Y029893D03*
X042180Y030893D03*
X043180Y029893D03*
X043180Y031893D03*
X066680Y030893D03*
X067680Y029893D03*
X070680Y030893D03*
X071680Y029893D03*
X071680Y031893D03*
X067680Y031893D03*
X095180Y030893D03*
X096180Y029893D03*
X099180Y030893D03*
X100180Y029893D03*
X100180Y031893D03*
X096180Y031893D03*
X123180Y030893D03*
X124180Y029893D03*
X127180Y030893D03*
X128180Y029893D03*
X128180Y031893D03*
X124180Y031893D03*
D16*
X124230Y023393D03*
X126130Y023393D03*
X126130Y021893D03*
X126130Y020393D03*
X124230Y020393D03*
X124230Y021893D03*
X124180Y015393D03*
X126180Y015393D03*
X097680Y015393D03*
X095680Y015393D03*
X095730Y020393D03*
X097630Y020393D03*
X097630Y021893D03*
X095730Y021893D03*
X095730Y023393D03*
X097630Y023393D03*
X069180Y015393D03*
X067180Y015393D03*
X067230Y020393D03*
X069130Y020393D03*
X069130Y021893D03*
X067230Y021893D03*
X067230Y023393D03*
X069130Y023393D03*
X040630Y023393D03*
X038730Y023393D03*
X038730Y021893D03*
X038730Y020393D03*
X040630Y020393D03*
X040630Y021893D03*
X040680Y015393D03*
X038680Y015393D03*
D17*
X036180Y015143D03*
X036180Y016143D03*
X064680Y016143D03*
X064680Y015143D03*
X093180Y015143D03*
X093180Y016143D03*
X121680Y016143D03*
X121680Y015143D03*
D18*
X118680Y019393D03*
X117680Y019393D03*
X111180Y019393D03*
X110180Y019393D03*
X090180Y019393D03*
X089180Y019393D03*
X082680Y019393D03*
X081680Y019393D03*
X061680Y019393D03*
X060680Y019393D03*
X054180Y019393D03*
X053180Y019393D03*
X033180Y019393D03*
X032180Y019393D03*
X025680Y019393D03*
X024680Y019393D03*
D19*
X022680Y017393D03*
X026680Y017393D03*
X030180Y017393D03*
X034180Y017393D03*
X051180Y017393D03*
X055180Y017393D03*
X058680Y017393D03*
X062680Y017393D03*
X079680Y017393D03*
X083680Y017393D03*
X087180Y017393D03*
X091180Y017393D03*
X108180Y017393D03*
X112180Y017393D03*
X115680Y017393D03*
X119680Y017393D03*
D20*
X016664Y016393D03*
X015680Y016393D03*
X014696Y016393D03*
X009164Y016393D03*
X008180Y016393D03*
X007196Y016393D03*
X007196Y018854D03*
X009164Y018854D03*
X014696Y018854D03*
X016664Y018854D03*
D21*
X008630Y029893D03*
X007630Y029893D03*
X007630Y030893D03*
X008630Y030893D03*
X008630Y031893D03*
X007630Y031893D03*
X007630Y032893D03*
X008630Y032893D03*
D22*
X006680Y035393D03*
X009930Y037893D03*
X007930Y039393D03*
X010930Y039893D03*
X011930Y041393D03*
X012680Y043143D03*
X014430Y039393D03*
X016430Y038393D03*
X018930Y037393D03*
X021430Y037893D03*
X025180Y037393D03*
X026930Y038893D03*
X029180Y039893D03*
X033180Y039893D03*
X034680Y039143D03*
X034430Y038143D03*
X035180Y037643D03*
X034180Y037393D03*
X036680Y037777D03*
X036680Y039143D03*
X037680Y039143D03*
X038930Y039143D03*
X038930Y038143D03*
X040930Y038643D03*
X041680Y038393D03*
X040430Y039393D03*
X038930Y037143D03*
X038430Y035643D03*
X036680Y034893D03*
X037180Y034393D03*
X035680Y033893D03*
X032430Y034893D03*
X031930Y035393D03*
X031680Y036393D03*
X029330Y034893D03*
X029430Y033893D03*
X032180Y033393D03*
X035680Y031893D03*
X034680Y031393D03*
X030680Y030893D03*
X033180Y029393D03*
X032680Y027393D03*
X030430Y027393D03*
X028430Y027893D03*
X027180Y025893D03*
X026180Y024893D03*
X027680Y024393D03*
X029180Y025393D03*
X024180Y025893D03*
X022430Y024643D03*
X023180Y023393D03*
X021180Y022893D03*
X022680Y022393D03*
X018680Y022893D03*
X017430Y021643D03*
X018680Y020893D03*
X021180Y018393D03*
X019780Y015993D03*
X012680Y015793D03*
X012980Y019893D03*
X011430Y020893D03*
X009930Y021643D03*
X012980Y022093D03*
X015080Y024593D03*
X018430Y025893D03*
X020430Y025893D03*
X011180Y028393D03*
X015180Y029893D03*
X012180Y030393D03*
X016180Y032893D03*
X021680Y031643D03*
X025180Y033393D03*
X021580Y035593D03*
X018180Y035893D03*
X022180Y039893D03*
X027180Y041393D03*
X029680Y042393D03*
X042930Y036893D03*
X047430Y039393D03*
X049430Y040893D03*
X053930Y042893D03*
X055930Y040893D03*
X058680Y040393D03*
X056430Y038893D03*
X060430Y036893D03*
X060930Y037393D03*
X061680Y036893D03*
X063680Y037393D03*
X065680Y037393D03*
X065680Y038393D03*
X064680Y038643D03*
X063680Y038893D03*
X060930Y038643D03*
X066680Y039643D03*
X070180Y039893D03*
X073930Y040393D03*
X075180Y038893D03*
X081930Y036393D03*
X086430Y036643D03*
X087430Y037393D03*
X088180Y036893D03*
X090180Y037393D03*
X092180Y037393D03*
X092180Y038393D03*
X091180Y038643D03*
X090180Y038393D03*
X087430Y038393D03*
X083680Y039393D03*
X085430Y040893D03*
X079930Y042893D03*
X072430Y042893D03*
X065430Y036143D03*
X063180Y034893D03*
X064180Y034393D03*
X062430Y033893D03*
X064680Y033393D03*
X064430Y031893D03*
X062180Y031893D03*
X058680Y030893D03*
X061180Y029893D03*
X063680Y028643D03*
X064680Y028893D03*
X065680Y029393D03*
X066680Y028643D03*
X068680Y028643D03*
X069680Y029393D03*
X068680Y031393D03*
X075180Y028393D03*
X078430Y026893D03*
X081430Y027393D03*
X084930Y026393D03*
X086930Y024893D03*
X089430Y025393D03*
X091680Y027893D03*
X089930Y028393D03*
X088430Y029893D03*
X086430Y030893D03*
X083680Y030893D03*
X081430Y029893D03*
X077930Y030893D03*
X071930Y026643D03*
X069680Y025893D03*
X068180Y025393D03*
X067180Y025893D03*
X066180Y025893D03*
X062430Y027393D03*
X059430Y025893D03*
X056930Y025393D03*
X050680Y025393D03*
X047430Y026893D03*
X050430Y028893D03*
X046180Y029893D03*
X048930Y030893D03*
X052930Y030893D03*
X055930Y028893D03*
X043430Y026893D03*
X041180Y025893D03*
X039930Y025893D03*
X038680Y026143D03*
X037680Y027393D03*
X038430Y028893D03*
X040180Y028893D03*
X041180Y029393D03*
X040930Y031643D03*
X040180Y031643D03*
X041680Y031893D03*
X035930Y035893D03*
X049930Y036393D03*
X054430Y036393D03*
X059930Y035393D03*
X071930Y035893D03*
X086930Y035393D03*
X088680Y033893D03*
X090680Y033393D03*
X090680Y034393D03*
X089680Y034893D03*
X092430Y036143D03*
X098430Y036393D03*
X104180Y036393D03*
X109430Y036893D03*
X113430Y036643D03*
X113680Y037393D03*
X114430Y036893D03*
X116680Y037393D03*
X118430Y036143D03*
X119680Y037393D03*
X119680Y038393D03*
X120430Y038893D03*
X119430Y040143D03*
X117930Y038643D03*
X116680Y038643D03*
X113680Y038393D03*
X111680Y039393D03*
X108430Y040393D03*
X112930Y042893D03*
X102930Y042893D03*
X096180Y039893D03*
X094680Y039893D03*
X101930Y038643D03*
X112930Y035393D03*
X114680Y033893D03*
X116180Y034893D03*
X117180Y034393D03*
X117680Y033393D03*
X119180Y032393D03*
X116680Y030893D03*
X114430Y030893D03*
X111680Y031893D03*
X106430Y031393D03*
X107930Y029393D03*
X104430Y027393D03*
X100180Y026643D03*
X098430Y026143D03*
X096930Y025643D03*
X095430Y025893D03*
X094680Y025643D03*
X095180Y028893D03*
X093180Y029393D03*
X097180Y028893D03*
X098180Y028893D03*
X097180Y031393D03*
X092430Y031893D03*
X090430Y031893D03*
X106430Y024893D03*
X103930Y024393D03*
X108180Y022393D03*
X111930Y022893D03*
X115680Y020893D03*
X104430Y020893D03*
X101430Y019893D03*
X101430Y016893D03*
X105430Y015393D03*
X091930Y020893D03*
X085430Y020893D03*
X076430Y020893D03*
X073430Y020393D03*
X071930Y017393D03*
X065680Y015643D03*
X057680Y020893D03*
X048930Y021393D03*
X046930Y019393D03*
X043430Y020893D03*
X047930Y023393D03*
X044430Y016893D03*
X030680Y022893D03*
X027930Y022393D03*
X028430Y019893D03*
X028430Y015643D03*
X007980Y023593D03*
X007180Y025893D03*
X044430Y042893D03*
X078680Y024393D03*
X109930Y025393D03*
X115430Y026893D03*
X117930Y025393D03*
X123430Y025643D03*
X124430Y025893D03*
X125430Y025893D03*
X126180Y025893D03*
X128680Y026893D03*
X126680Y028893D03*
X125680Y028893D03*
X123680Y028893D03*
X122680Y028893D03*
X125180Y031393D03*
X133430Y030393D03*
X127430Y035393D03*
X123930Y035393D03*
X122680Y036893D03*
X123180Y039393D03*
X130930Y038393D03*
X130430Y042393D03*
X125430Y042893D03*
X128430Y020393D03*
X130930Y019893D03*
X129430Y016893D03*
M02*
