%
M48
M72
T01C0.0236
T02C0.0276
T03C0.0315
T04C0.0354
T05C0.0360
T06C0.0380
T07C0.0394
T08C0.0400
T09C0.0472
T10C0.0650
T11C0.0787
T12C0.1250
%
T01
X12680Y15793
X19780Y15993
X21180Y18393
X18680Y20893
X17430Y21643
X18680Y22893
X21180Y22893
X22680Y22393
X23180Y23393
X22430Y24643
X26180Y24893
X27180Y25893
X29180Y25393
X27680Y24393
X30680Y22893
X27930Y22393
X28430Y19893
X28430Y15643
X43430Y20893
X46930Y19393
X48930Y21393
X47930Y23393
X50680Y25393
X47430Y26893
X50430Y28893
X46180Y29893
X48930Y30893
X52930Y30893
X55930Y28893
X58680Y30893
X61180Y29893
X63680Y28643
X64680Y28893
X65680Y29393
X66680Y28643
X68680Y28643
X69680Y29393
X68680Y31393
X64430Y31893
X62180Y31893
X64680Y33393
X62430Y33893
X64180Y34393
X63180Y34893
X65430Y36143
X65680Y37393
X63680Y37393
X61680Y36893
X60930Y37393
X60430Y36893
X59930Y35393
X54430Y36393
X49930Y36393
X56430Y38893
X58680Y40393
X55930Y40893
X53930Y42893
X49430Y40893
X47430Y39393
X41680Y38393
X40930Y38643
X40430Y39393
X38930Y39143
X38930Y38143
X37680Y39143
X36680Y39143
X34680Y39143
X34430Y38143
X35180Y37643
X34180Y37393
X36680Y37777
X38930Y37143
X38430Y35643
X36680Y34893
X37180Y34393
X35680Y33893
X32430Y34893
X31930Y35393
X31680Y36393
X29330Y34893
X29430Y33893
X32180Y33393
X35680Y31893
X34680Y31393
X30680Y30893
X33180Y29393
X32680Y27393
X30430Y27393
X28430Y27893
X24180Y25893
X20430Y25893
X18430Y25893
X15080Y24593
X12980Y22093
X9930Y21643
X11430Y20893
X12980Y19893
X7980Y23593
X7180Y25893
X11180Y28393
X15180Y29893
X12180Y30393
X16180Y32893
X21680Y31643
X25180Y33393
X21580Y35593
X18180Y35893
X18930Y37393
X21430Y37893
X25180Y37393
X26930Y38893
X29180Y39893
X33180Y39893
X27180Y41393
X29680Y42393
X22180Y39893
X16430Y38393
X14430Y39393
X10930Y39893
X7930Y39393
X9930Y37893
X6680Y35393
X11930Y41393
X12680Y43143
X35930Y35893
X42930Y36893
X41680Y31893
X40930Y31643
X40180Y31643
X41180Y29393
X40180Y28893
X38430Y28893
X37680Y27393
X38680Y26143
X39930Y25893
X41180Y25893
X43430Y26893
X56930Y25393
X59430Y25893
X62430Y27393
X66180Y25893
X67180Y25893
X68180Y25393
X69680Y25893
X71930Y26643
X75180Y28393
X78430Y26893
X81430Y27393
X84930Y26393
X86930Y24893
X89430Y25393
X91680Y27893
X89930Y28393
X88430Y29893
X86430Y30893
X83680Y30893
X81430Y29893
X77930Y30893
X86930Y35393
X88680Y33893
X90680Y33393
X90680Y34393
X89680Y34893
X92430Y36143
X92180Y37393
X90180Y37393
X90180Y38393
X91180Y38643
X92180Y38393
X94680Y39893
X96180Y39893
X101930Y38643
X104180Y36393
X109430Y36893
X113430Y36643
X113680Y37393
X114430Y36893
X116680Y37393
X118430Y36143
X119680Y37393
X119680Y38393
X120430Y38893
X119430Y40143
X117930Y38643
X116680Y38643
X113680Y38393
X111680Y39393
X108430Y40393
X112930Y42893
X102930Y42893
X88180Y36893
X87430Y37393
X86430Y36643
X87430Y38393
X83680Y39393
X85430Y40893
X79930Y42893
X73930Y40393
X75180Y38893
X70180Y39893
X66680Y39643
X65680Y38393
X64680Y38643
X63680Y38893
X60930Y38643
X71930Y35893
X81930Y36393
X90430Y31893
X92430Y31893
X97180Y31393
X93180Y29393
X95180Y28893
X97180Y28893
X98180Y28893
X100180Y26643
X98430Y26143
X96930Y25643
X95430Y25893
X94680Y25643
X103930Y24393
X106430Y24893
X109930Y25393
X115430Y26893
X117930Y25393
X123430Y25643
X124430Y25893
X125430Y25893
X126180Y25893
X128680Y26893
X126680Y28893
X125680Y28893
X123680Y28893
X122680Y28893
X116680Y30893
X114430Y30893
X111680Y31893
X114680Y33893
X116180Y34893
X117180Y34393
X117680Y33393
X119180Y32393
X125180Y31393
X133430Y30393
X127430Y35393
X123930Y35393
X122680Y36893
X123180Y39393
X130930Y38393
X130430Y42393
X125430Y42893
X112930Y35393
X106430Y31393
X107930Y29393
X104430Y27393
X111930Y22893
X108180Y22393
X104430Y20893
X101430Y19893
X101430Y16893
X105430Y15393
X115680Y20893
X128430Y20393
X130930Y19893
X129430Y16893
X91930Y20893
X85430Y20893
X76430Y20893
X73430Y20393
X71930Y17393
X65680Y15643
X57680Y20893
X44430Y16893
X78680Y24393
X98430Y36393
X72430Y42893
X44430Y42893
T02
X36180Y15143
X36180Y16143
X64680Y16143
X64680Y15143
X93180Y15143
X93180Y16143
X121680Y16143
X121680Y15143
T03
X124180Y29893
X123180Y30893
X124180Y31893
X127180Y30893
X128180Y29893
X128180Y31893
X100180Y31893
X99180Y30893
X100180Y29893
X96180Y29893
X95180Y30893
X96180Y31893
X71680Y31893
X70680Y30893
X71680Y29893
X67680Y29893
X66680Y30893
X67680Y31893
X43180Y31893
X42180Y30893
X43180Y29893
X39180Y29893
X38180Y30893
X39180Y31893
T04
X33180Y19393
X32180Y19393
X25680Y19393
X24680Y19393
X53180Y19393
X54180Y19393
X60680Y19393
X61680Y19393
X81680Y19393
X82680Y19393
X89180Y19393
X90180Y19393
X110180Y19393
X111180Y19393
X117680Y19393
X118680Y19393
T05
X8630Y29893
X7630Y29893
X7630Y30893
X8630Y30893
X8630Y31893
X7630Y31893
X7630Y32893
X8630Y32893
T06
X13680Y32393
X13680Y31393
X13680Y30393
X13680Y29393
X13680Y28393
X14680Y28393
X15680Y28393
X16680Y28393
X17680Y28393
X18680Y28393
X19680Y28393
X20680Y28393
X21680Y28393
X22680Y28393
X23680Y28393
X24680Y28393
X25680Y28393
X26680Y28393
X25680Y29393
X23680Y29393
X22680Y29393
X21680Y29393
X13680Y33393
X13680Y34393
X14680Y34393
X15680Y34393
X16680Y34393
X17680Y34393
X18680Y34393
X19680Y34393
X20680Y34393
X21680Y34393
X22680Y34393
X23680Y34393
X24680Y34393
X25680Y34393
X26680Y34393
T07
X16664Y18854
X14696Y18854
X9164Y18854
X7196Y18854
X7196Y16393
X8180Y16393
X9164Y16393
X14696Y16393
X15680Y16393
X16664Y16393
T08
X35180Y23393
X36180Y23393
X43180Y23393
X44180Y23393
X63680Y23393
X64680Y23393
X71680Y23393
X72680Y23393
X92180Y23393
X93180Y23393
X100180Y23393
X101180Y23393
X120680Y23393
X121680Y23393
X128680Y23393
X129680Y23393
X121180Y41893
X120180Y41893
X119180Y41893
X118180Y41893
X117180Y41893
X116180Y41893
X116180Y42893
X117180Y42893
X118180Y42893
X119180Y42893
X120180Y42893
X121180Y42893
X94680Y42893
X94680Y41893
X93680Y41893
X92680Y41893
X91680Y41893
X90680Y41893
X89680Y41893
X89680Y42893
X90680Y42893
X91680Y42893
X92680Y42893
X93680Y42893
X68180Y42893
X68180Y41893
X67180Y41893
X66180Y41893
X65180Y41893
X64180Y41893
X63180Y41893
X63180Y42893
X64180Y42893
X65180Y42893
X66180Y42893
X67180Y42893
X41680Y42893
X41680Y41893
X40680Y41893
X39680Y41893
X38680Y41893
X37680Y41893
X36680Y41893
X36680Y42893
X37680Y42893
X38680Y42893
X39680Y42893
X40680Y42893
X31930Y39143
X31930Y38143
T09
X23885Y42397
X22507Y42397
T10
X38730Y23393
X40630Y23393
X40630Y21893
X40630Y20393
X38730Y20393
X38730Y21893
X38680Y15393
X40680Y15393
X67180Y15393
X69180Y15393
X69130Y20393
X67230Y20393
X67230Y21893
X69130Y21893
X69130Y23393
X67230Y23393
X95730Y23393
X97630Y23393
X97630Y21893
X95730Y21893
X95730Y20393
X97630Y20393
X97680Y15393
X95680Y15393
X124180Y15393
X126180Y15393
X126130Y20393
X126130Y21893
X124230Y21893
X124230Y20393
X124230Y23393
X126130Y23393
T11
X119680Y17393
X115680Y17393
X112180Y17393
X108180Y17393
X91180Y17393
X87180Y17393
X83680Y17393
X79680Y17393
X62680Y17393
X58680Y17393
X55180Y17393
X51180Y17393
X34180Y17393
X30180Y17393
X26680Y17393
X22680Y17393
T12
X52430Y39893
X78930Y39893
X105430Y39893
X132680Y41893
X7680Y41893
M30
